<?xml version="1.0" standalone="no"?>
<!DOCTYPE svg PUBLIC "-//W3C//DTD SVG 20010904//EN"
 "http://www.w3.org/TR/2001/REC-SVG-20010904/DTD/svg10.dtd">
<svg version="1.0" xmlns="http://www.w3.org/2000/svg"
 width="804.000000pt" height="237.000000pt" viewBox="0 0 804.000000 237.000000"
 preserveAspectRatio="xMidYMid meet">

<g transform="translate(0.000000,237.000000) scale(0.100000,-0.100000)"
fill="#000000" stroke="none">
<path d="M470 2233 l0 -133 260 0 260 0 0 -357 c0 -340 1 -360 20 -391 25 -40
75 -72 115 -72 40 0 90 32 115 72 19 31 20 51 20 391 l0 357 260 0 260 0 0
133 0 132 -655 0 -655 0 0 -132z"/>
<path d="M3984 2360 c-193 -21 -369 -110 -505 -258 -98 -107 -156 -214 -196
-363 -25 -94 -22 -290 5 -391 126 -465 610 -719 1064 -559 305 109 525 407
531 723 2 73 -1 91 -19 115 -45 62 -53 63 -449 63 -402 0 -407 -1 -452 -69
-27 -40 -29 -80 -6 -128 33 -71 43 -73 361 -73 l282 0 -6 -27 c-13 -53 -76
-162 -124 -212 -57 -59 -133 -109 -215 -142 -51 -20 -78 -23 -180 -23 -107 0
-127 3 -189 27 -176 69 -304 218 -342 396 -19 91 -17 154 6 245 27 108 63 170
145 251 97 97 180 136 338 160 l37 6 0 134 c0 74 -3 134 -7 134 -5 -1 -40 -5
-79 -9z"/>
<path d="M69 2345 c-56 -31 -79 -100 -53 -163 44 -112 204 -108 244 6 13 37
13 47 0 84 -27 76 -120 112 -191 73z"/>
<path d="M2387 2345 c-168 -46 -307 -172 -367 -332 -27 -71 -41 -183 -29 -226
21 -76 106 -115 181 -84 48 20 67 52 79 132 22 160 126 258 274 257 153 0 271
-119 269 -272 -1 -130 -77 -222 -349 -425 -325 -243 -433 -384 -460 -598 l-7
-57 134 0 135 0 6 45 c9 60 45 130 100 191 47 52 114 106 317 256 222 163 328
290 374 447 20 70 21 209 1 286 -47 180 -199 331 -385 380 -67 18 -208 18
-273 0z"/>
<path d="M5705 2339 c-234 -59 -429 -217 -535 -433 -55 -113 -72 -181 -77
-326 -6 -139 13 -244 61 -354 96 -217 299 -391 532 -458 113 -32 305 -32 419
0 286 81 500 296 576 578 29 104 31 299 6 393 -69 254 -219 438 -448 545 -112
53 -178 68 -324 72 -106 3 -145 0 -210 -17z m180 -539 c48 0 48 0 169 120
l122 120 92 -92 92 -92 -120 -122 c-119 -120 -120 -121 -120 -168 0 -48 1 -49
120 -170 l119 -122 -92 -92 -92 -92 -110 111 c-61 61 -125 118 -143 126 -54
23 -85 5 -212 -122 l-115 -115 -92 92 -93 93 115 115 c170 170 170 181 0 350
l-115 115 92 92 92 93 122 -120 c121 -120 121 -120 169 -120z"/>
<path d="M7300 2341 c-191 -61 -331 -208 -375 -393 -29 -123 -13 -201 47 -238
42 -25 104 -26 145 0 41 25 53 48 64 126 16 112 66 186 155 230 48 23 63 26
127 22 39 -3 87 -12 104 -22 96 -49 153 -139 153 -241 0 -130 -74 -221 -355
-434 -203 -154 -301 -246 -363 -341 -48 -74 -92 -200 -92 -266 l0 -44 134 0
133 0 6 45 c17 119 96 208 362 405 276 204 380 322 429 489 20 70 21 209 1
286 -47 179 -201 333 -380 380 -80 20 -225 19 -295 -4z"/>
<path d="M64 1801 c-64 -39 -64 -37 -64 -575 l0 -486 135 0 135 0 0 493 c0
470 -1 493 -20 524 -37 61 -124 82 -186 44z"/>
<path d="M1071 993 c-50 -26 -76 -66 -76 -118 0 -79 77 -144 152 -130 48 9 99
60 108 108 19 100 -95 187 -184 140z"/>
<path d="M2873 995 c-67 -29 -94 -126 -53 -192 69 -113 244 -61 242 72 -1 100
-97 160 -189 120z"/>
<path d="M7810 997 c-76 -27 -108 -143 -55 -206 51 -60 140 -65 194 -11 70 71
44 183 -52 219 -34 13 -43 13 -87 -2z"/>
<path d="M1414 241 c-12 -5 -31 -22 -43 -37 -38 -48 -22 -157 28 -184 38 -20
96 -12 125 16 29 30 34 54 11 54 -8 0 -15 -4 -15 -10 0 -19 -40 -50 -65 -50
-14 0 -37 11 -50 25 -33 32 -36 114 -5 145 26 26 77 26 106 -1 33 -31 52 -19
23 14 -26 30 -80 43 -115 28z"/>
<path d="M1646 235 c-54 -29 -76 -88 -56 -150 34 -104 187 -100 209 5 22 106
-68 191 -153 145z m104 -40 c35 -37 33 -110 -4 -142 -15 -12 -38 -23 -50 -23
-33 0 -73 35 -81 70 -8 36 10 96 33 110 32 18 77 11 102 -15z"/>
<path d="M2862 234 c-24 -16 -29 -53 -10 -72 9 -9 5 -17 -15 -36 -32 -30 -35
-68 -7 -96 23 -23 79 -27 98 -8 10 10 17 10 33 0 28 -18 44 -5 23 19 -14 16
-15 24 -6 44 14 30 -3 45 -22 19 -12 -16 -14 -16 -31 10 -17 26 -17 27 4 47
11 11 21 28 21 39 0 19 -34 50 -55 50 -6 0 -21 -7 -33 -16z m58 -34 c0 -10 -7
-23 -16 -31 -13 -10 -17 -10 -25 2 -13 20 -11 47 4 52 20 7 37 -4 37 -23z
m-10 -112 c22 -30 22 -32 5 -45 -36 -26 -75 -9 -75 32 0 23 17 45 35 45 6 0
22 -14 35 -32z"/>
<path d="M3180 233 c-66 -34 -79 -141 -23 -197 36 -36 103 -37 138 -1 23 22
34 55 19 55 -3 0 -19 -13 -34 -30 -43 -46 -96 -38 -120 20 -15 37 -7 95 16
121 23 26 79 25 101 -1 18 -20 43 -27 43 -12 0 17 -47 52 -75 57 -19 4 -43 -1
-65 -12z"/>
<path d="M3424 236 c-43 -19 -64 -53 -64 -104 0 -53 20 -94 55 -110 99 -45
189 40 156 149 -19 63 -86 92 -147 65z m95 -33 c45 -37 36 -139 -15 -162 -38
-17 -63 -13 -89 14 -34 33 -35 108 -3 142 26 28 77 31 107 6z"/>
<path d="M6422 240 c-12 -5 -27 -21 -32 -36 -16 -40 8 -69 69 -84 55 -13 75
-29 69 -57 -8 -43 -109 -37 -123 8 -7 21 -25 16 -25 -6 0 -53 117 -76 158 -32
44 47 20 88 -65 113 -30 9 -57 22 -60 30 -16 41 75 63 99 24 15 -23 38 -27 38
-7 0 37 -81 67 -128 47z"/>
<path d="M7413 234 c-63 -32 -77 -141 -24 -195 42 -42 101 -41 143 2 21 20 27
34 21 40 -7 7 -20 0 -41 -20 -17 -17 -39 -31 -50 -31 -29 0 -69 36 -75 69 -8
39 10 98 33 111 32 17 79 12 92 -10 15 -24 43 -27 34 -4 -3 9 -6 17 -6 20 0 8
-60 34 -77 34 -10 0 -32 -7 -50 -16z"/>
<path d="M7860 239 c-29 -12 -40 -26 -40 -56 0 -31 23 -49 84 -67 61 -18 75
-37 46 -66 -29 -29 -67 -25 -100 10 -30 32 -49 25 -30 -10 15 -28 42 -40 89
-40 53 0 83 28 79 73 -3 35 -25 50 -96 67 -39 10 -43 14 -40 38 3 23 8 27 40
30 28 2 42 -2 55 -17 10 -12 23 -21 30 -21 24 0 -8 49 -40 60 -36 12 -44 12
-77 -1z"/>
<path d="M0 124 l0 -116 70 4 c85 5 110 23 117 91 12 102 -19 137 -119 137
l-68 0 0 -116z m137 74 c18 -16 23 -32 23 -68 0 -68 -20 -90 -81 -90 l-49 0 0
90 0 90 42 0 c29 0 49 -7 65 -22z"/>
<path d="M270 158 c-18 -46 -38 -98 -45 -115 -12 -29 -12 -33 1 -33 8 0 22 16
30 36 14 34 16 35 67 32 48 -3 52 -5 61 -35 6 -22 15 -33 28 -33 17 0 17 2 2
38 -9 20 -30 72 -46 115 -42 104 -57 103 -98 -5z m73 -4 c9 -23 13 -44 10 -48
-8 -8 -73 -8 -73 0 0 19 35 102 41 96 3 -4 13 -26 22 -48z"/>
<path d="M410 230 c0 -5 18 -10 40 -10 l40 0 0 -105 c0 -87 3 -105 15 -105 12
0 15 18 15 105 l0 105 40 0 c22 0 40 5 40 10 0 6 -38 10 -95 10 -57 0 -95 -4
-95 -10z"/>
<path d="M640 158 c-18 -46 -38 -98 -45 -115 -13 -30 -12 -33 4 -33 12 0 21
11 27 33 9 30 13 32 61 35 51 3 53 2 67 -32 8 -20 22 -36 30 -36 17 0 16 3
-50 163 -38 93 -54 90 -94 -15z m73 -4 c9 -23 13 -44 10 -48 -8 -8 -73 -8 -73
0 0 19 35 102 41 96 3 -4 13 -26 22 -48z"/>
<path d="M900 125 c0 -96 3 -115 15 -115 12 0 15 13 15 55 0 49 2 55 21 55 33
0 56 -17 89 -65 17 -25 37 -45 45 -45 21 0 19 7 -20 61 -31 43 -32 49 -16 54
29 9 44 52 29 83 -13 26 -17 27 -96 30 l-82 3 0 -116z m144 79 c34 -34 4 -64
-65 -64 l-49 0 0 40 0 40 49 0 c32 0 55 -6 65 -16z"/>
<path d="M1140 125 l0 -115 85 0 c69 0 85 3 85 15 0 12 -14 15 -70 15 l-70 0
0 40 0 40 65 0 c37 0 65 4 65 10 0 6 -28 10 -65 10 l-65 0 0 40 0 40 65 0 c37
0 65 4 65 10 0 6 -33 10 -80 10 l-80 0 0 -115z"/>
<path d="M1834 223 c45 -128 83 -213 96 -213 13 0 42 65 98 218 2 6 -2 12 -10
12 -9 0 -27 -36 -48 -95 -19 -52 -37 -95 -40 -95 -4 0 -21 43 -39 95 -22 63
-38 95 -48 95 -10 0 -13 -6 -9 -17z"/>
<path d="M2070 125 l0 -115 85 0 c69 0 85 3 85 15 0 12 -14 15 -70 15 l-70 0
0 40 0 40 65 0 c37 0 65 4 65 10 0 6 -28 10 -65 10 l-65 0 0 40 0 40 65 0 c37
0 65 4 65 10 0 6 -33 10 -80 10 l-80 0 0 -115z"/>
<path d="M2290 125 c0 -70 4 -115 10 -115 6 0 10 22 10 49 0 56 8 65 50 56 20
-4 38 -21 60 -56 21 -31 39 -49 52 -49 17 0 16 4 -12 44 -16 25 -35 48 -41 52
-6 3 2 14 20 25 23 14 31 26 31 47 0 47 -26 62 -108 62 l-72 0 0 -115z m144
73 c20 -33 -4 -53 -68 -56 l-56 -3 0 41 0 41 56 -3 c41 -2 60 -8 68 -20z"/>
<path d="M2500 235 c0 -2 18 -30 40 -61 35 -50 40 -65 40 -111 0 -40 4 -53 15
-53 11 0 15 12 15 50 0 42 6 58 46 115 37 53 42 65 27 65 -11 0 -29 -20 -48
-50 -16 -28 -32 -50 -36 -50 -3 0 -20 23 -37 50 -17 28 -38 50 -47 50 -8 0
-15 -2 -15 -5z"/>
<path d="M3620 125 c0 -96 3 -115 15 -115 12 0 15 18 16 98 l1 97 32 -95 c19
-56 39 -96 47 -98 10 -2 22 19 38 70 13 40 29 84 37 98 12 22 13 15 14 -72 0
-59 4 -98 10 -98 6 0 10 45 10 115 0 106 -1 115 -19 115 -15 0 -26 -20 -52
-95 -20 -61 -35 -91 -40 -83 -5 7 -21 50 -36 96 -23 71 -30 82 -50 82 -23 0
-23 -2 -23 -115z"/>
<path d="M3894 125 c-1 -88 2 -115 12 -115 8 0 14 17 16 48 l3 47 56 5 c67 6
89 22 89 65 0 50 -25 65 -106 65 l-69 0 -1 -115z m134 83 c18 -18 14 -56 -7
-68 -11 -5 -38 -10 -60 -10 l-41 0 0 45 0 45 48 0 c26 0 53 -5 60 -12z"/>
<path d="M4110 173 c0 -83 15 -139 40 -153 24 -13 86 -13 110 0 25 14 40 70
40 153 0 51 -3 67 -14 67 -11 0 -15 -21 -18 -91 -3 -97 -15 -119 -63 -119 -48
0 -60 22 -63 119 -3 70 -7 91 -18 91 -11 0 -14 -16 -14 -67z"/>
<path d="M4330 230 c0 -5 18 -10 40 -10 l40 0 0 -105 c0 -87 3 -105 15 -105
12 0 15 18 15 105 l0 105 40 0 c22 0 40 5 40 10 0 6 -38 10 -95 10 -57 0 -95
-4 -95 -10z"/>
<path d="M4550 125 l0 -115 85 0 c69 0 85 3 85 15 0 12 -14 15 -70 15 l-70 0
0 40 0 40 65 0 c37 0 65 4 65 10 0 6 -28 10 -65 10 l-65 0 0 40 0 40 70 0 c40
0 70 4 70 10 0 6 -35 10 -85 10 l-85 0 0 -115z"/>
<path d="M4770 125 c0 -96 3 -115 15 -115 12 0 15 13 15 55 0 51 2 55 24 55
31 0 67 -30 91 -74 11 -21 27 -36 38 -36 16 0 17 2 1 31 -9 18 -27 43 -40 55
-13 14 -18 24 -10 24 42 0 63 90 27 110 -11 5 -51 10 -90 10 l-71 0 0 -115z
m144 79 c34 -34 4 -64 -65 -64 l-49 0 0 40 0 40 49 0 c32 0 55 -6 65 -16z"/>
<path d="M5100 125 c0 -96 3 -115 15 -115 12 0 15 13 15 55 0 49 2 55 21 55
33 0 55 -17 85 -65 17 -26 37 -45 47 -45 17 0 17 1 0 31 -10 17 -29 42 -42 55
-17 17 -19 24 -9 24 22 0 48 33 48 63 0 44 -23 57 -106 57 l-74 0 0 -115z
m144 73 c19 -31 -4 -53 -63 -56 l-51 -3 0 41 0 41 51 -3 c36 -2 55 -8 63 -20z"/>
<path d="M5330 125 l0 -115 90 0 c73 0 90 3 90 15 0 12 -15 15 -75 15 l-75 0
0 40 0 40 65 0 c83 0 85 18 3 22 l-63 3 -3 38 -3 37 70 0 c41 0 71 4 71 10 0
6 -35 10 -85 10 l-85 0 0 -115z"/>
<path d="M5550 125 c0 -96 3 -115 15 -115 11 0 15 12 15 50 l0 50 55 0 c42 0
60 5 75 20 24 24 26 57 4 88 -13 19 -24 22 -90 22 l-74 0 0 -115z m138 83 c18
-18 14 -56 -7 -68 -11 -5 -38 -10 -60 -10 l-41 0 0 45 0 45 48 0 c26 0 53 -5
60 -12z"/>
<path d="M5803 223 c-3 -10 -23 -62 -44 -115 -28 -73 -34 -98 -23 -98 7 0 20
16 29 36 14 35 15 35 67 32 50 -3 53 -5 62 -35 6 -21 15 -33 27 -33 15 0 11
16 -29 115 -35 89 -50 115 -64 115 -10 0 -21 -8 -25 -17z m48 -68 c9 -24 14
-46 11 -49 -8 -9 -72 -7 -72 2 0 16 34 101 39 96 3 -3 13 -25 22 -49z"/>
<path d="M5970 125 c0 -96 3 -115 15 -115 12 0 15 19 15 115 0 96 -3 115 -15
115 -12 0 -15 -19 -15 -115z"/>
<path d="M6060 125 c0 -96 3 -115 15 -115 12 0 15 13 15 55 0 49 2 55 21 55
33 0 55 -17 85 -65 17 -26 37 -45 47 -45 17 0 17 1 0 31 -10 17 -28 41 -40 52
l-21 21 29 18 c21 13 29 25 29 47 0 48 -22 61 -106 61 l-74 0 0 -115z m144 73
c19 -31 -4 -53 -63 -56 l-51 -3 0 41 0 41 51 -3 c36 -2 55 -8 63 -20z"/>
<path d="M6600 125 l0 -115 91 0 c68 0 90 3 87 13 -3 8 -30 13 -76 15 l-72 3
0 39 0 40 65 0 c83 0 85 18 3 22 l-63 3 -3 38 -3 37 70 0 c41 0 71 4 71 10 0
6 -35 10 -85 10 l-85 0 0 -115z"/>
<path d="M6820 125 c0 -96 3 -115 15 -115 11 0 15 12 15 50 0 37 4 52 16 57
25 10 62 -14 96 -62 18 -25 38 -45 45 -45 7 0 13 2 13 5 0 9 -32 58 -52 81
-18 20 -18 21 7 32 32 15 42 55 21 87 -15 23 -22 25 -96 25 l-80 0 0 -115z
m148 83 c18 -18 14 -46 -7 -58 -11 -5 -40 -10 -65 -10 l-46 0 0 40 0 40 53 0
c29 0 58 -5 65 -12z"/>
<path d="M7075 128 c52 -136 67 -144 101 -53 12 33 31 84 43 113 16 41 18 52
7 52 -8 0 -26 -30 -42 -72 -55 -149 -45 -145 -85 -32 -23 65 -41 100 -51 102
-13 3 -8 -19 27 -110z"/>
<path d="M7280 125 c0 -96 3 -115 15 -115 12 0 15 19 15 115 0 96 -3 115 -15
115 -12 0 -15 -19 -15 -115z"/>
<path d="M7600 125 l0 -115 85 0 c69 0 85 3 85 15 0 12 -14 15 -70 15 l-70 0
0 40 0 40 65 0 c37 0 65 4 65 10 0 6 -28 10 -65 10 l-65 0 0 40 0 40 70 0 c40
0 70 4 70 10 0 6 -35 10 -85 10 l-85 0 0 -115z"/>
</g>
</svg>
